<svg width="18" height="14" viewBox="0 0 18 14" fill="none" xmlns="http://www.w3.org/2000/svg">
<path d="M0.938574 5.13776H16.7977V10.2955C16.7977 11.9776 15.434 13.3413 13.7519 13.3413H3.98438C2.30223 13.3413 0.938574 11.9776 0.938574 10.2955V5.13776ZM16.7977 3.83776H0.938574V3.6958C0.938574 2.01365 2.30223 0.65 3.98438 0.65H13.7519C15.434 0.65 16.7977 2.01365 16.7977 3.6958V3.83776Z" stroke="#AAA8B6" stroke-width="1.3"/>
<mask id="path-2-inside-1_258_2" fill="white">
<path d="M12.1679 9.10728C12.1679 10.3465 11.1633 11.3512 9.92406 11.3512C8.6848 11.3512 7.68018 10.3465 7.68018 9.10728C7.68018 7.86802 8.6848 6.8634 9.92406 6.8634C11.1633 6.8634 12.1679 7.86802 12.1679 9.10728ZM9.10833 9.10728C9.10833 9.5578 9.47354 9.92301 9.92406 9.92301C10.3746 9.92301 10.7398 9.5578 10.7398 9.10728C10.7398 8.65677 10.3746 8.29156 9.92406 8.29156C9.47354 8.29156 9.10833 8.65677 9.10833 9.10728Z"/>
</mask>
<path d="M12.1679 9.10728C12.1679 10.3465 11.1633 11.3512 9.92406 11.3512C8.6848 11.3512 7.68018 10.3465 7.68018 9.10728C7.68018 7.86802 8.6848 6.8634 9.92406 6.8634C11.1633 6.8634 12.1679 7.86802 12.1679 9.10728ZM9.10833 9.10728C9.10833 9.5578 9.47354 9.92301 9.92406 9.92301C10.3746 9.92301 10.7398 9.5578 10.7398 9.10728C10.7398 8.65677 10.3746 8.29156 9.92406 8.29156C9.47354 8.29156 9.10833 8.65677 9.10833 9.10728Z" stroke="#AAA8B6" stroke-width="6.2" mask="url(#path-2-inside-1_258_2)"/>
<mask id="path-3-inside-2_258_2" fill="white">
<path d="M15.3357 9.10728C15.3357 10.3465 14.331 11.3512 13.0918 11.3512C11.8525 11.3512 10.8479 10.3465 10.8479 9.10728C10.8479 7.86802 11.8525 6.8634 13.0918 6.8634C14.331 6.8634 15.3357 7.86802 15.3357 9.10728ZM12.2761 9.10728C12.2761 9.5578 12.6413 9.92301 13.0918 9.92301C13.5423 9.92301 13.9075 9.5578 13.9075 9.10728C13.9075 8.65677 13.5423 8.29156 13.0918 8.29156C12.6413 8.29156 12.2761 8.65677 12.2761 9.10728Z"/>
</mask>
<path d="M15.3357 9.10728C15.3357 10.3465 14.331 11.3512 13.0918 11.3512C11.8525 11.3512 10.8479 10.3465 10.8479 9.10728C10.8479 7.86802 11.8525 6.8634 13.0918 6.8634C14.331 6.8634 15.3357 7.86802 15.3357 9.10728ZM12.2761 9.10728C12.2761 9.5578 12.6413 9.92301 13.0918 9.92301C13.5423 9.92301 13.9075 9.5578 13.9075 9.10728C13.9075 8.65677 13.5423 8.29156 13.0918 8.29156C12.6413 8.29156 12.2761 8.65677 12.2761 9.10728Z" stroke="#AAA8B6" stroke-width="6.2" mask="url(#path-3-inside-2_258_2)"/>
</svg>
