<svg width="24" height="24" viewBox="0 0 24 24" fill="none" xmlns="http://www.w3.org/2000/svg">
<path d="M5.54545 13.1818L5.93182 13.2359L9.46318 9.70455C9.32409 9.20227 9.45545 8.63045 9.865 8.22864C10.4677 7.61818 11.4414 7.61818 12.0441 8.22864C12.4536 8.63045 12.585 9.20227 12.4459 9.70455L14.4318 11.6905L14.8182 11.6364C14.9573 11.6364 15.0886 11.6364 15.2045 11.6905L17.9632 8.93182C17.9091 8.81591 17.9091 8.68455 17.9091 8.54545C17.9091 8.13557 18.0719 7.74248 18.3617 7.45265C18.6516 7.16282 19.0447 7 19.4545 7C19.8644 7 20.2575 7.16282 20.5473 7.45265C20.8372 7.74248 21 8.13557 21 8.54545C21 8.95533 20.8372 9.34843 20.5473 9.63826C20.2575 9.92808 19.8644 10.0909 19.4545 10.0909C19.3155 10.0909 19.1841 10.0909 19.0682 10.0368L16.3095 12.7955C16.3636 12.9114 16.3636 13.0427 16.3636 13.1818C16.3636 13.5917 16.2008 13.9848 15.911 14.2746C15.6212 14.5644 15.2281 14.7273 14.8182 14.7273C14.4083 14.7273 14.0152 14.5644 13.7254 14.2746C13.4356 13.9848 13.2727 13.5917 13.2727 13.1818L13.3268 12.7955L11.3409 10.8095C11.0936 10.8636 10.8155 10.8636 10.5682 10.8095L7.03682 14.3409L7.09091 14.7273C7.09091 15.1372 6.92808 15.5302 6.63826 15.8201C6.34843 16.1099 5.95533 16.2727 5.54545 16.2727C5.13557 16.2727 4.74248 16.1099 4.45265 15.8201C4.16282 15.5302 4 15.1372 4 14.7273C4 14.3174 4.16282 13.9243 4.45265 13.6345C4.74248 13.3446 5.13557 13.1818 5.54545 13.1818Z" fill="#DE848B"/>
</svg>
