<svg width="115" height="55" viewBox="0 0 115 55" fill="none" xmlns="http://www.w3.org/2000/svg">
<path d="M15.3716 36.5877C11.4989 36.5877 7.92413 33.746 7.92413 28.2993C7.92413 22.7933 11.4989 20.0108 15.3716 20.0108C19.2443 20.0108 22.8191 22.7933 22.8191 28.2993C22.8191 33.8052 19.2443 36.5877 15.3716 36.5877ZM15.3716 12.8472C6.61337 12.8472 0 19.3003 0 28.2993C0 37.239 6.61337 43.7513 15.3716 43.7513C24.1299 43.7513 30.7432 37.239 30.7432 28.2993C30.7432 19.3003 24.1299 12.8472 15.3716 12.8472Z" fill="#DE848B"/>
<path d="M42.0141 42.8633L47.4729 0H39.5487L34.09 42.8633H42.0141Z" fill="#DE848B"/>
<path d="M50.1291 44.4618C50.9632 50.0269 56.3254 55 64.3687 55C75.391 55 79.7403 47.718 79.7403 39.7255V13.7352H72.1141V17.169C71.1012 15.2153 68.4201 13.2024 63.7729 13.2024C55.7296 13.2024 50.1291 19.7148 50.1291 27.4112C50.1291 35.5813 55.9679 41.5608 63.7729 41.5608C68.003 41.5608 70.7437 39.7255 71.9353 37.831V39.9623C71.9353 45.5867 69.1351 48.0732 64.1303 48.0732C60.3768 48.0732 57.8149 45.7643 57.2787 42.5673L50.1291 44.4618ZM65.1432 34.8116C61.0322 34.8116 58.1128 31.9699 58.1128 27.4112C58.1128 22.9117 61.2109 20.07 65.1432 20.07C68.9563 20.07 72.0545 22.9117 72.0545 27.4112C72.0545 31.9107 69.1946 34.8116 65.1432 34.8116Z" fill="#DE848B"/>
<path d="M99.5141 36.5877C95.6414 36.5877 92.0666 33.746 92.0666 28.2993C92.0666 22.7933 95.6414 20.0108 99.5141 20.0108C103.387 20.0108 106.962 22.7933 106.962 28.2993C106.962 33.8052 103.387 36.5877 99.5141 36.5877ZM99.5141 12.8472C90.7558 12.8472 84.1424 19.3003 84.1424 28.2993C84.1424 37.239 90.7558 43.7513 99.5141 43.7513C108.272 43.7513 114.886 37.239 114.886 28.2993C114.886 19.3003 108.272 12.8472 99.5141 12.8472Z" fill="#DE848B"/>
<path d="M109.812 43.5158C109.812 43.5158 109.812 41.1713 109.812 40.0079C109.812 40.0079 112.239 37.5256 113.249 35.5221C115.154 31.7453 114.874 28.1771 114.874 28.1771C115.028 28.1771 114.997 43.5158 114.997 43.5158H109.812Z" fill="#DE848B"/>
<path d="M47.3013 1.3474L47.4729 0H39.5487L39.3772 1.3474H47.3013Z" fill="#DE848B"/>
</svg>
