<svg version="1.1" id="Layer_1" xmlns="http://www.w3.org/2000/svg" xmlns:xlink="http://www.w3.org/1999/xlink" x="0px" y="0px"
	 width="100%" viewBox="0 0 384 400" enable-background="new 0 0 384 400" xml:space="preserve">
<path fill="#000000" opacity="1.000000" stroke="none" 
	d="
M151.991852,357.273010 
	C127.037560,349.799438 105.493141,337.117371 87.298141,319.180908 
	C68.657555,300.805237 54.855999,279.234406 46.717617,254.128220 
	C39.416374,231.604523 36.736813,208.650452 39.707676,185.193588 
	C44.850830,144.585129 62.718052,110.640999 93.395325,83.339180 
	C117.705956,61.703495 146.297028,49.382832 178.092270,45.011944 
	C210.907761,40.500801 242.413345,46.233685 272.033173,61.349720 
	C303.819427,77.571381 327.523254,101.806862 343.140289,133.853104 
	C358.170074,164.694382 363.081940,197.199066 357.108673,230.962814 
	C350.507629,268.274902 332.875488,299.549255 304.361694,324.832092 
	C281.607025,345.008423 255.120514,356.761383 225.493774,361.954712 
	C200.796356,366.283936 176.431519,364.009064 151.991852,357.273010 
M295.015656,117.468796 
	C291.830719,113.114120 287.648163,109.768181 283.565216,106.354538 
	C252.078278,80.029114 216.027634,70.010971 175.607208,77.156975 
	C145.916534,82.406044 120.711960,96.303444 101.313553,119.581215 
	C71.314583,155.579498 62.259083,196.479370 75.515594,241.512344 
	C84.492416,272.007019 102.808495,296.010162 129.811981,313.190155 
	C146.515625,323.817230 164.613373,330.465424 184.291000,332.548309 
	C200.632996,334.278168 217.085449,333.741608 232.770630,329.060303 
	C270.546265,317.786102 298.949463,294.836670 315.920471,258.719208 
	C329.161835,230.539062 331.925720,201.222000 324.132355,171.163284 
	C318.960297,151.214859 309.293365,133.425858 295.015656,117.468796 
z"/>
<path fill="#000000" opacity="1.000000" stroke="none" 
	d="
M207.075134,185.499680 
	C215.537766,189.167068 219.172318,195.688385 219.263092,204.172516 
	C219.348236,212.128326 215.702606,218.317383 208.641174,222.015869 
	C201.088135,225.971893 193.524307,225.553360 186.684677,220.271988 
	C180.239456,215.295120 177.591599,208.526657 179.024658,200.483246 
	C180.494736,192.232117 185.199203,186.873367 193.545792,184.607849 
	C198.152313,183.357483 202.380020,184.063873 207.075134,185.499680 
z"/>
<path fill="#000000" opacity="1.000000" stroke="none" 
	d="
M272.474792,219.533966 
	C261.746826,228.657318 246.454514,224.354401 241.029877,213.779083 
	C237.360886,206.626389 238.665207,195.022552 244.147781,189.535629 
	C249.988510,183.690323 261.315002,182.343735 269.219574,186.554886 
	C276.785675,190.585739 280.454803,198.903976 278.882904,207.639832 
	C278.052338,212.255646 276.047852,216.069580 272.474792,219.533966 
z"/>
<path fill="#000000" opacity="1.000000" stroke="none" 
	d="
M154.526245,190.542206 
	C162.286072,202.506516 160.243164,214.816299 149.337830,221.593491 
	C142.595413,225.783585 135.528168,225.676514 128.645615,221.635498 
	C121.079849,217.193314 118.235977,210.255753 118.984322,201.858688 
	C119.686340,193.981491 123.520485,188.160919 131.295990,185.351196 
	C140.014755,182.200623 147.542816,184.339172 154.526245,190.542206 
z"/>
</svg>