<svg width="18" height="14" viewBox="0 0 18 14" fill="none" xmlns="http://www.w3.org/2000/svg">
<path d="M1.08053 5.27972H16.6557V10.2955C16.6557 11.8992 15.3556 13.1993 13.7519 13.1993H3.98438C2.38063 13.1993 1.08053 11.8992 1.08053 10.2955V5.27972ZM16.6557 3.6958L1.08053 3.6958C1.08053 2.09205 2.38063 0.791958 3.98438 0.791958H13.7519C15.3556 0.791958 16.6557 2.09205 16.6557 3.6958Z" stroke="#DE848B" stroke-width="1.58392"/>
<mask id="path-2-inside-1_369_7663" fill="white">
<path d="M12.1679 9.10741C12.1679 10.3467 11.1633 11.3513 9.92406 11.3513C8.6848 11.3513 7.68018 10.3467 7.68018 9.10741C7.68018 7.86815 8.6848 6.86353 9.92406 6.86353C11.1633 6.86353 12.1679 7.86815 12.1679 9.10741ZM9.10833 9.10741C9.10833 9.55792 9.47354 9.92313 9.92406 9.92313C10.3746 9.92313 10.7398 9.55792 10.7398 9.10741C10.7398 8.65689 10.3746 8.29168 9.92406 8.29168C9.47354 8.29168 9.10833 8.65689 9.10833 9.10741Z"/>
</mask>
<path d="M12.1679 9.10741C12.1679 10.3467 11.1633 11.3513 9.92406 11.3513C8.6848 11.3513 7.68018 10.3467 7.68018 9.10741C7.68018 7.86815 8.6848 6.86353 9.92406 6.86353C11.1633 6.86353 12.1679 7.86815 12.1679 9.10741ZM9.10833 9.10741C9.10833 9.55792 9.47354 9.92313 9.92406 9.92313C10.3746 9.92313 10.7398 9.55792 10.7398 9.10741C10.7398 8.65689 10.3746 8.29168 9.92406 8.29168C9.47354 8.29168 9.10833 8.65689 9.10833 9.10741Z" stroke="#DE848B" stroke-width="3.16783" mask="url(#path-2-inside-1_369_7663)"/>
<mask id="path-3-inside-2_369_7663" fill="white">
<path d="M15.3357 9.10741C15.3357 10.3467 14.331 11.3513 13.0918 11.3513C11.8525 11.3513 10.8479 10.3467 10.8479 9.10741C10.8479 7.86815 11.8525 6.86353 13.0918 6.86353C14.331 6.86353 15.3357 7.86815 15.3357 9.10741ZM12.2761 9.10741C12.2761 9.55792 12.6413 9.92313 13.0918 9.92313C13.5423 9.92313 13.9075 9.55792 13.9075 9.10741C13.9075 8.65689 13.5423 8.29168 13.0918 8.29168C12.6413 8.29168 12.2761 8.65689 12.2761 9.10741Z"/>
</mask>
<path d="M15.3357 9.10741C15.3357 10.3467 14.331 11.3513 13.0918 11.3513C11.8525 11.3513 10.8479 10.3467 10.8479 9.10741C10.8479 7.86815 11.8525 6.86353 13.0918 6.86353C14.331 6.86353 15.3357 7.86815 15.3357 9.10741ZM12.2761 9.10741C12.2761 9.55792 12.6413 9.92313 13.0918 9.92313C13.5423 9.92313 13.9075 9.55792 13.9075 9.10741C13.9075 8.65689 13.5423 8.29168 13.0918 8.29168C12.6413 8.29168 12.2761 8.65689 12.2761 9.10741Z" stroke="#DE848B" stroke-width="3.16783" mask="url(#path-3-inside-2_369_7663)"/>
</svg>
