<svg width="12" height="12" viewBox="0 0 12 12" fill="none" xmlns="http://www.w3.org/2000/svg">
<path fill-rule="evenodd" clip-rule="evenodd" d="M3.45455 4.90909L2 4V3.77778L1 3V9C1 9.26522 1.10536 9.51957 1.29289 9.70711C1.48043 9.89464 1.73478 10 2 10H10L3.45455 4.90909ZM10 4L6.9901 5.88119L11 9V3C11 2.445 10.55 2 10 2H2L6.27723 5.32673L10 3V4Z" fill="#1C2E3D"/>
<path d="M2 2C1.445 2 1 2.445 1 3L2 3.77778L3.45455 4.90909L10 10C10.2652 10 10.5196 9.89464 10.7071 9.70711C10.8946 9.51957 11 9.26522 11 9L6.9901 5.88119L6.27723 5.32673L2 2Z" fill="#FF0000"/>
</svg>
