<svg width="17" height="17" viewBox="0 0 17 17" fill="none" xmlns="http://www.w3.org/2000/svg">
<path d="M10.4644 11.8906L12.9106 9.44444H3.77778V7.55556H12.9106L10.4644 5.10944L11.8056 3.77778L16.5278 8.5L11.8056 13.2222L10.4644 11.8906ZM15.1111 0C15.6121 0 16.0925 0.199007 16.4468 0.553243C16.801 0.907478 17 1.38792 17 1.88889V6.29944L15.1111 4.41056V1.88889H1.88889V15.1111H15.1111V12.5894L17 10.7006V15.1111C17 15.6121 16.801 16.0925 16.4468 16.4468C16.0925 16.801 15.6121 17 15.1111 17H1.88889C0.840556 17 0 16.15 0 15.1111V1.88889C0 0.840556 0.840556 0 1.88889 0H15.1111Z" fill="#AAA8B6"/>
</svg>
