<svg width="21" height="13" viewBox="0 0 21 13" fill="none" xmlns="http://www.w3.org/2000/svg">
<path d="M18.6872 3.95979C18.6872 5.12615 17.7416 6.07168 16.5753 6.07168C15.4089 6.07168 14.4634 5.12615 14.4634 3.95979C14.4634 2.79342 15.4089 1.8479 16.5753 1.8479C17.7416 1.8479 18.6872 2.79342 18.6872 3.95979ZM15.7889 3.95979C15.7889 4.39408 16.141 4.74614 16.5753 4.74614C17.0096 4.74614 17.3616 4.39408 17.3616 3.95979C17.3616 3.5255 17.0096 3.17344 16.5753 3.17344C16.141 3.17344 15.7889 3.5255 15.7889 3.95979Z" fill="#DE848B"/>
<path d="M6.5436 3.95979C6.5436 5.12615 5.59808 6.07168 4.43171 6.07168C3.26535 6.07168 2.31982 5.12615 2.31982 3.95979C2.31982 2.79342 3.26535 1.8479 4.43171 1.8479C5.59808 1.8479 6.5436 2.79342 6.5436 3.95979ZM3.64536 3.95979C3.64536 4.39408 3.99742 4.74614 4.43171 4.74614C4.866 4.74614 5.21806 4.39408 5.21806 3.95979C5.21806 3.5255 4.866 3.17344 4.43171 3.17344C3.99742 3.17344 3.64536 3.5255 3.64536 3.95979Z" fill="#DE848B"/>
<path d="M13.1435 2.63986C13.1435 4.09781 11.9616 5.27972 10.5036 5.27972C9.04567 5.27972 7.86377 4.09781 7.86377 2.63986C7.86377 1.18191 9.04567 0 10.5036 0C11.9616 0 13.1435 1.18191 13.1435 2.63986ZM9.43401 2.63986C9.43401 3.23059 9.9129 3.70948 10.5036 3.70948C11.0944 3.70948 11.5732 3.23059 11.5732 2.63986C11.5732 2.04913 11.0944 1.57024 10.5036 1.57024C9.9129 1.57024 9.43401 2.04913 9.43401 2.63986Z" fill="#DE848B"/>
<path d="M14.1992 10.0315C14.1992 10.5496 14.0938 10.8238 13.9883 10.9755C13.8887 11.1187 13.7307 11.2372 13.4427 11.3262C13.1402 11.4198 12.7421 11.4656 12.2256 11.4817C11.8782 11.4925 11.5172 11.4897 11.1232 11.4866C10.9257 11.485 10.7199 11.4834 10.5034 11.4834C10.2869 11.4834 10.081 11.485 9.88353 11.4866C9.48954 11.4897 9.12854 11.4925 8.78121 11.4817C8.26466 11.4656 7.86662 11.4198 7.56404 11.3262C7.2761 11.2372 7.11808 11.1187 7.01848 10.9755C6.91294 10.8238 6.80758 10.5496 6.80758 10.0315C6.80758 7.99033 8.46225 6.33566 10.5034 6.33566C12.5445 6.33566 14.1992 7.99033 14.1992 10.0315Z" stroke="#DE848B" stroke-width="1.58392"/>
<path d="M13.4878 7.5236C14.0444 6.35148 15.2179 5.5437 16.5754 5.5437C18.4708 5.5437 20.0073 7.11818 20.0073 9.06041C20.0073 11.0026 18.4708 10.8188 16.5754 10.8188C15.6533 10.8188 14.8162 10.8623 14.1996 10.6833" stroke="#DE848B" stroke-width="1.58392"/>
<path d="M7.59965 7.70545C7.08191 6.43586 5.85854 5.5437 4.43182 5.5437C2.53648 5.5437 1 7.11818 1 9.06041C1 11.0026 2.53648 10.8188 4.43182 10.8188C5.42151 10.8188 6.31335 10.8689 6.93968 10.6403" stroke="#DE848B" stroke-width="1.58392"/>
</svg>
