<svg width="8" height="11" viewBox="0 0 8 11" fill="none" xmlns="http://www.w3.org/2000/svg">
<path d="M5.92756 2.19534C5.92756 3.40773 4.94472 4.39057 3.73233 4.39057C2.51994 4.39057 1.53711 3.40773 1.53711 2.19534C1.53711 0.982957 2.51994 0.00012207 3.73233 0.00012207C4.94472 0.00012207 5.92756 0.982957 5.92756 2.19534ZM2.84287 2.19534C2.84287 2.68658 3.2411 3.0848 3.73233 3.0848C4.22357 3.0848 4.62179 2.68658 4.62179 2.19534C4.62179 1.70411 4.22357 1.30589 3.73233 1.30589C3.2411 1.30589 2.84287 1.70411 2.84287 2.19534Z" fill="#ED7B65"/>
<path d="M6.80519 8.34186C6.80519 8.77275 6.71758 9.00072 6.62981 9.12692C6.54699 9.24601 6.41559 9.34451 6.17614 9.41856C5.92453 9.49638 5.59353 9.53446 5.16399 9.54784C4.87516 9.55684 4.57496 9.55447 4.24733 9.55188C4.08308 9.55059 3.91194 9.54924 3.73188 9.54924C3.55182 9.54924 3.38067 9.55059 3.21642 9.55188C2.8888 9.55447 2.5886 9.55684 2.29977 9.54784C1.87023 9.53446 1.53923 9.49638 1.28762 9.41856C1.04817 9.34451 0.916767 9.24601 0.833944 9.12692C0.746182 9.00072 0.658567 8.77275 0.658567 8.34186C0.658567 6.64452 2.03454 5.26855 3.73188 5.26855C5.42922 5.26855 6.80519 6.64452 6.80519 8.34186Z" stroke="#ED7B65" stroke-width="1.31713"/>
</svg>
