<svg xmlns="http://www.w3.org/2000/svg" viewBox="0.6586 0.0001 6.147 9.554">
  <path d="M 5.9276 2.1953 C 5.9276 3.4077 4.9447 4.3906 3.7323 4.3906 C 2.5199 4.3906 1.5371 3.4077 1.5371 2.1953 C 1.5371 0.983 2.5199 0.0001 3.7323 0.0001 C 4.9447 0.0001 5.9276 0.983 5.9276 2.1953 Z M 2.8429 2.1953 C 2.8429 2.6866 3.2411 3.0848 3.7323 3.0848 C 4.2236 3.0848 4.6218 2.6866 4.6218 2.1953 C 4.6218 1.7041 4.2236 1.3059 3.7323 1.3059 C 3.2411 1.3059 2.8429 1.7041 2.8429 2.1953 Z M 6.8052 8.3419 C 6.8052 8.7728 6.7176 9.0007 6.6298 9.1269 C 6.547 9.246 6.4156 9.3445 6.1761 9.4186 C 5.9245 9.4964 5.5935 9.5345 5.164 9.5478 C 4.8752 9.5568 4.575 9.5545 4.2473 9.5519 C 4.0831 9.5506 3.9119 9.5492 3.7319 9.5492 C 3.5518 9.5492 3.3807 9.5506 3.2164 9.5519 C 2.8888 9.5545 2.5886 9.5568 2.2998 9.5478 C 1.8702 9.5345 1.5392 9.4964 1.2876 9.4186 C 1.0482 9.3445 0.9168 9.246 0.8339 9.1269 C 0.7462 9.0007 0.6586 8.7728 0.6586 8.3419 C 0.6586 6.6445 2.0345 5.2686 3.7319 5.2686 C 5.4292 5.2686 6.8052 6.6445 6.8052 8.3419 Z" stroke="#FF0000" stroke-width="0.1" fill="none"/>
</svg>